<svg width="21" height="20" viewBox="0 0 21 20" fill="none" xmlns="http://www.w3.org/2000/svg">
<g clip-path="url(#clip0_13749_4119)">
<path d="M10.5003 0.5C10.686 0.500099 10.8679 0.551883 11.0258 0.649552C11.1837 0.747222 11.3113 0.886919 11.3943 1.053L13.9743 6.211L19.6443 7.035C19.829 7.06182 20.0025 7.1398 20.1452 7.2601C20.2879 7.38041 20.394 7.53825 20.4517 7.71576C20.5093 7.89327 20.5161 8.08337 20.4714 8.26456C20.4266 8.44574 20.332 8.61078 20.1983 8.741L16.0713 12.765L16.9993 18.439C17.0291 18.6227 17.0071 18.811 16.9357 18.9829C16.8643 19.1547 16.7464 19.3032 16.5952 19.4117C16.444 19.5202 16.2655 19.5843 16.0799 19.5969C15.8942 19.6095 15.7087 19.5701 15.5443 19.483L10.5003 16.807L5.45629 19.483C5.29184 19.5701 5.10635 19.6095 4.92069 19.5969C4.73504 19.5843 4.55658 19.5202 4.40539 19.4117C4.2542 19.3032 4.13628 19.1547 4.06489 18.9829C3.9935 18.811 3.97147 18.6227 4.00129 18.439L4.92929 12.765L0.80229 8.741C0.668587 8.61078 0.573994 8.44574 0.529212 8.26456C0.484431 8.08337 0.491248 7.89327 0.548892 7.71576C0.606537 7.53825 0.712708 7.38041 0.855395 7.2601C0.998082 7.1398 1.17159 7.06182 1.35629 7.035L7.02629 6.211L9.60629 1.053C9.68928 0.886919 9.81687 0.747222 9.97476 0.649552C10.1327 0.551883 10.3146 0.500099 10.5003 0.5ZM10.5003 3.736L8.58229 7.572C8.51031 7.71626 8.40451 7.84099 8.27392 7.93553C8.14333 8.03008 7.99182 8.09165 7.83229 8.115L3.64829 8.723L6.69829 11.696C6.81355 11.8083 6.90001 11.9468 6.95032 12.0996C7.00064 12.2525 7.01332 12.4152 6.98729 12.574L6.30029 16.771L10.0313 14.791C10.1757 14.7143 10.3368 14.6742 10.5003 14.6742C10.6638 14.6742 10.8249 14.7143 10.9693 14.791L14.7003 16.771L14.0133 12.574C13.9874 12.4154 14.0002 12.2528 14.0505 12.1001C14.1008 11.9475 14.1872 11.8092 14.3023 11.697L17.3523 8.723L13.1693 8.115C13.0098 8.09165 12.8582 8.03008 12.7277 7.93553C12.5971 7.84099 12.4913 7.71626 12.4193 7.572L10.5003 3.736Z" fill="#4772FF"/>
</g>
<defs>
<clipPath id="clip0_13749_4119">
<rect width="21" height="20" fill="white"/>
</clipPath>
</defs>
</svg>
